<svg width="481" height="165" viewBox="0 0 481 165" fill="none" xmlns="http://www.w3.org/2000/svg">
<rect x="84.1012" y="19.2399" width="396.899" height="108.039" rx="12" fill="#FFF9EA"/>
<rect width="125.414" height="124.319" rx="12" fill="#FFF9EA"/>
<rect x="13" y="9" width="129" height="126" rx="12" fill="#FFF9EA"/>
<rect width="38.5159" height="126.867" rx="12" transform="matrix(0.706022 -0.70819 0.706022 0.70819 20.0485 76.1199)" fill="#FFF9EA"/>
<path d="M8.85278 25.1598C8.85278 16.1686 16.1192 8.87988 25.0828 8.87988H98.8559C107.819 8.87988 115.086 16.1686 115.086 25.1598V99.1593C115.086 108.15 107.819 115.439 98.8559 115.439H25.0828C16.1192 115.439 8.85278 108.15 8.85278 99.1593V25.1598Z" fill="#FDC230"/>
<path d="M243.593 42.034H216.893V32.9995H280.95V42.034H254.25V113.632H243.593V42.034Z" fill="#3D3939"/>
<path d="M290.286 32.9995H300.944V113.632H290.286V32.9995Z" fill="#3D3939"/>
<path d="M375.187 57.2797C373.99 51.5579 371.335 47.2665 367.222 44.4056C363.183 41.5446 358.359 40.1142 352.75 40.1142C347.963 40.1142 343.85 41.0176 340.409 42.8245C337.044 44.6314 334.239 47.0783 331.996 50.165C329.827 53.1765 328.219 56.6398 327.172 60.5547C326.125 64.4696 325.601 68.5352 325.601 72.7512C325.601 77.3438 326.125 81.7104 327.172 85.8512C328.219 89.9168 329.827 93.4929 331.996 96.5797C334.239 99.5912 337.081 102 340.522 103.807C343.962 105.614 348.075 106.518 352.862 106.518C356.377 106.518 359.481 105.953 362.173 104.824C364.941 103.619 367.297 102 369.241 99.9676C371.26 97.8596 372.831 95.3751 373.953 92.5142C375.075 89.6533 375.748 86.5665 375.972 83.2538H386.63C385.583 93.4176 382.105 101.323 376.197 106.969C370.288 112.616 362.211 115.439 351.965 115.439C345.757 115.439 340.335 114.385 335.698 112.277C331.061 110.094 327.209 107.12 324.143 103.356C321.076 99.5912 318.758 95.1492 317.187 90.0297C315.691 84.9102 314.943 79.4142 314.943 73.5418C314.943 67.6694 315.766 62.1734 317.411 57.0538C319.057 51.859 321.45 47.3418 324.591 43.5021C327.807 39.6625 331.771 36.651 336.483 34.4676C341.27 32.209 346.729 31.0797 352.862 31.0797C357.05 31.0797 361.014 31.6444 364.754 32.7737C368.493 33.903 371.821 35.5593 374.738 37.7426C377.655 39.926 380.086 42.674 382.03 45.9866C383.975 49.224 385.246 52.9883 385.845 57.2797H375.187Z" fill="#3D3939"/>
<path d="M399.832 32.9995H410.489V73.203L451.1 32.9995H464.899L431.131 65.5237L466.245 113.632H452.783L423.839 72.8642L410.489 85.3995V113.632H399.832V32.9995Z" fill="#3D3939"/>
<path d="M159.033 69.2423H181.316C185.98 69.2423 189.478 68.2971 191.81 66.4067C194.142 64.5163 195.308 61.4444 195.308 57.191C195.308 53.0951 194.142 50.1413 191.81 48.3297C189.478 46.4393 185.98 45.4941 181.316 45.4941H159.033V69.2423ZM138.693 31.0797H188.571C192.717 31.0797 196.431 31.7098 199.713 32.9701C203.081 34.1516 205.931 35.8057 208.263 37.9324C210.681 40.0592 212.495 42.5403 213.704 45.3759C215 48.1328 215.647 51.1259 215.647 54.3554C215.647 59.3177 214.482 63.6105 212.15 67.2338C209.904 70.857 206.19 73.6139 201.008 75.5043V75.7406C203.513 76.3707 205.586 77.3553 207.227 78.6944C208.868 79.9546 210.206 81.4906 211.243 83.3022C212.279 85.0351 213.013 86.9649 213.445 89.0916C213.963 91.2183 214.309 93.345 214.482 95.4717C214.568 96.8108 214.654 98.3861 214.741 100.198C214.827 102.009 214.957 103.86 215.129 105.751C215.388 107.641 215.734 109.453 216.166 111.186C216.684 112.84 217.418 114.258 218.368 115.439H198.028C196.906 112.761 196.215 109.571 195.955 105.869C195.696 102.167 195.308 98.6224 194.79 95.2354C194.099 90.8245 192.63 87.595 190.385 85.5471C188.139 83.4991 184.468 82.4752 179.373 82.4752H159.033V115.439H138.693V31.0797Z" fill="#3D3939"/>
<path fill-rule="evenodd" clip-rule="evenodd" d="M25.0828 35.5198C25.0828 26.5286 32.3493 19.2399 41.3129 19.2399H115.086C124.05 19.2399 131.316 26.5286 131.316 35.5198V109.519C131.316 118.51 124.05 125.799 115.086 125.799H110.363L121.733 137.204L107.127 151.855L81.1503 125.799H41.3129C32.3493 125.799 25.0828 118.51 25.0828 109.519V35.5198ZM45.7393 39.9597V105.079H66.3957L78.0511 93.3881L89.7065 105.079H110.66V39.9597H45.7393Z" fill="#3D3939"/>
</svg>
